<svg width="40" height="40" viewBox="0 0 40 40" fill="none" xmlns="http://www.w3.org/2000/svg">
<rect width="40" height="40" rx="20" fill="#EA5532"/>
<path d="M12.5801 8.85156C12.8307 8.85156 13.0667 8.88086 13.2881 8.93945C13.5094 8.99479 13.7438 9.08431 13.9912 9.20801V10.1699C13.7633 10.0234 13.5192 9.90625 13.2588 9.81836C12.9984 9.72721 12.7656 9.68164 12.5605 9.68164C12.388 9.68164 12.2529 9.71419 12.1553 9.7793C12.0576 9.8444 12.0088 9.93717 12.0088 10.0576C12.0088 10.126 12.0495 10.1943 12.1309 10.2627C12.2122 10.3311 12.4352 10.4564 12.7998 10.6387C13.3206 10.9023 13.6852 11.1465 13.8936 11.3711C14.1051 11.5924 14.2109 11.8594 14.2109 12.1719C14.2109 12.6113 14.0579 12.958 13.752 13.2119C13.446 13.4626 13.0326 13.5879 12.5117 13.5879C12.1862 13.5879 11.8818 13.5521 11.5986 13.4805C11.3187 13.4089 11.0859 13.3226 10.9004 13.2217V12.2207C11.4863 12.5462 11.9795 12.709 12.3799 12.709C12.585 12.709 12.751 12.6732 12.8779 12.6016C13.0049 12.5267 13.0684 12.429 13.0684 12.3086C13.0684 12.237 13.0456 12.1719 13 12.1133C12.9544 12.0547 12.8861 11.9945 12.7949 11.9326C12.7038 11.8708 12.4189 11.7227 11.9404 11.4883C11.5726 11.3125 11.3008 11.1221 11.125 10.917C10.9492 10.7087 10.8613 10.4629 10.8613 10.1797C10.8613 9.77604 11.0192 9.45378 11.335 9.21289C11.6507 8.97201 12.0658 8.85156 12.5801 8.85156ZM16.3936 7.72852H16.4912V8.93945H18.0537V9.84766H16.4912V11.9521C16.4912 12.1572 16.5531 12.3232 16.6768 12.4502C16.8005 12.5771 16.9697 12.6406 17.1846 12.6406C17.4645 12.6406 17.7868 12.5397 18.1514 12.3379V13.2998C17.7184 13.4919 17.3115 13.5879 16.9307 13.5879C16.4163 13.5879 16.0143 13.4479 15.7246 13.168C15.4382 12.888 15.2949 12.5088 15.2949 12.0303V9.84766H14.582V9.65234L16.3936 7.72852ZM20.876 8.85156C21.5465 8.85156 22.0771 9.06641 22.4678 9.49609C22.8584 9.92578 23.0537 10.5199 23.0537 11.2783V11.459H19.8262C19.875 11.8659 20.0264 12.18 20.2803 12.4014C20.5374 12.6195 20.889 12.7285 21.335 12.7285C21.6214 12.7285 21.8965 12.6797 22.1602 12.582C22.4271 12.4811 22.7021 12.3298 22.9854 12.1279V13.0215C22.4515 13.3991 21.8037 13.5879 21.042 13.5879C20.3226 13.5879 19.735 13.3714 19.2793 12.9385C18.8236 12.5055 18.5957 11.9294 18.5957 11.21C18.5957 10.5166 18.8057 9.9502 19.2256 9.51074C19.6488 9.07129 20.1989 8.85156 20.876 8.85156ZM21.9258 10.7314C21.8932 10.3994 21.7923 10.1406 21.623 9.95508C21.4538 9.76628 21.221 9.67188 20.9248 9.67188C20.6221 9.67188 20.3779 9.76139 20.1924 9.94043C20.0101 10.1195 19.8945 10.3831 19.8457 10.7314H21.9258ZM26.3496 8.85156C27.0007 8.85156 27.5247 9.06966 27.9219 9.50586C28.3223 9.94206 28.5225 10.5101 28.5225 11.21C28.5225 11.6689 28.4281 12.0791 28.2393 12.4404C28.0537 12.8018 27.7884 13.0833 27.4434 13.2852C27.0983 13.487 26.7077 13.5879 26.2715 13.5879C25.9167 13.5879 25.5602 13.4984 25.2021 13.3193V15.7998H24.001V8.93945H25.1924V9.23242C25.5537 8.97852 25.9395 8.85156 26.3496 8.85156ZM25.2021 12.4404C25.5016 12.613 25.7816 12.6992 26.042 12.6992C26.4196 12.6992 26.7223 12.5641 26.9502 12.2939C27.1781 12.0238 27.292 11.6755 27.292 11.249C27.292 10.7835 27.1895 10.4189 26.9844 10.1553C26.7826 9.8916 26.4945 9.75977 26.1201 9.75977C25.9801 9.75977 25.8451 9.78418 25.7148 9.83301C25.5846 9.87858 25.4137 9.97786 25.2021 10.1309V12.4404Z" fill="white"/>
<path d="M20.7188 20.5859V31.5H18.7188V20.5859H20.7188Z" fill="white"/>
</svg>
